<svg version="1.1" id="Layer_1" xmlns="http://www.w3.org/2000/svg" xmlns:xlink="http://www.w3.org/1999/xlink" x="0px" y="0px"
	 width="100%" viewBox="0 0 734 586" enable-background="new 0 0 734 586" xml:space="preserve">
<path fill="#FFFFFF" opacity="1.000000" stroke="none" 
	d="
M502.000000,587.000000 
	C334.666656,587.000000 167.833328,587.000000 1.000000,587.000000 
	C1.000000,391.666656 1.000000,196.333328 1.000000,1.000000 
	C245.666672,1.000000 490.333344,1.000000 735.000000,1.000000 
	C735.000000,196.333328 735.000000,391.666656 735.000000,587.000000 
	C657.500000,587.000000 580.000000,587.000000 502.000000,587.000000 
M351.858551,571.888611 
	C362.580200,572.594788 373.296570,573.398071 384.024811,573.983093 
	C398.076843,574.749329 412.132324,575.680603 426.197113,575.929077 
	C445.247101,576.265625 464.311737,576.276672 483.361725,575.945129 
	C498.258881,575.685913 513.176819,575.108215 528.023682,573.907349 
	C542.449463,572.740601 556.946960,571.394531 571.143677,568.705505 
	C593.728271,564.427734 615.970154,558.585510 637.011169,548.946167 
	C654.504822,540.931946 670.966370,531.183838 685.186096,518.186035 
	C699.469482,505.130127 710.639160,489.723846 718.192505,471.699036 
	C726.864746,451.004150 728.999695,430.062347 722.227905,408.474945 
	C714.345276,383.346497 696.406555,367.077423 674.113037,355.113220 
	C648.790649,341.523468 620.980164,337.007019 592.756165,335.107605 
	C573.210693,333.792206 553.620911,335.111755 534.286926,338.165741 
	C506.683655,342.525909 479.728973,349.809174 452.876678,357.488983 
	C421.934692,366.338440 391.021484,375.335785 359.862396,383.363129 
	C336.996155,389.254028 313.558502,392.170502 289.860046,391.944061 
	C276.414337,391.815643 262.965118,391.483002 249.530975,390.919769 
	C240.462402,390.539520 231.380005,389.910950 222.369888,388.838348 
	C204.900955,386.758698 187.488419,384.210052 170.033539,382.006042 
	C158.111679,380.500641 146.166702,379.163910 134.215836,377.905945 
	C116.847755,376.077728 99.415054,375.788666 82.302437,379.463104 
	C60.220238,384.204559 40.888176,394.327026 25.847891,411.639404 
	C12.871334,426.576355 5.299689,443.452942 6.925133,463.790131 
	C8.200347,479.745331 14.706601,493.286224 25.391302,504.835052 
	C39.390388,519.966248 56.483936,530.642212 75.171204,539.188110 
	C94.763245,548.147766 115.320267,553.779724 136.294876,557.866760 
	C150.472092,560.629272 164.886917,562.255737 179.244049,563.987488 
	C192.655396,565.605103 206.107269,567.421448 219.583069,567.856689 
	C246.175247,568.715515 272.797211,568.622681 299.404999,569.041260 
	C310.352509,569.213440 321.299835,569.586304 332.238403,570.068665 
	C338.499176,570.344849 344.742126,571.024475 351.858551,571.888611 
M329.782654,186.821320 
	C324.490295,185.684387 319.231323,184.350586 313.899445,183.446838 
	C296.733307,180.537186 279.629547,176.670700 262.332611,175.286331 
	C244.893906,173.890625 227.265900,174.403381 209.851425,177.892456 
	C189.920685,181.885666 171.545853,189.289368 156.108276,202.519974 
	C135.208038,220.432312 127.005020,243.654251 132.205444,270.578430 
	C137.326477,297.091492 153.254944,315.761322 177.773483,327.093323 
	C192.098953,333.714294 207.081863,337.785004 222.818924,339.154175 
	C236.774109,340.368347 250.707199,342.690460 264.665436,342.816284 
	C285.714478,343.006042 306.795410,342.050964 327.826660,340.914246 
	C339.973022,340.257782 352.186066,339.015198 364.125641,336.752014 
	C385.560608,332.688904 406.983429,328.317566 428.089233,322.834991 
	C446.979034,317.927979 465.653564,311.957733 484.022308,305.343628 
	C503.369751,298.377075 522.240173,290.086182 541.322632,282.382965 
	C554.512878,277.058350 566.287415,269.853882 575.240112,258.412994 
	C584.882263,246.091125 586.331482,232.789764 581.167358,218.383270 
	C573.642944,197.392029 547.581360,190.345078 531.504639,191.074799 
	C524.265137,191.403412 517.041565,192.214539 509.829529,192.982605 
	C500.335449,193.993713 490.860352,195.182266 481.376190,196.286789 
	C467.971802,197.847900 454.600464,200.121719 441.152161,200.753616 
	C428.085938,201.367569 414.888824,200.899918 401.844635,199.787704 
	C389.429810,198.729156 377.086487,196.508377 364.807709,194.271744 
	C353.349243,192.184555 342.016998,189.404694 329.782654,186.821320 
M315.468994,57.140911 
	C314.869537,59.334549 313.899353,61.501083 313.736633,63.726658 
	C313.127014,72.063812 311.757782,80.523849 312.589752,88.743866 
	C313.687286,99.587669 319.037720,109.169777 326.058075,117.478767 
	C335.053833,128.125748 346.348602,136.134735 359.703247,139.693405 
	C367.812347,141.854309 376.791626,140.635803 385.361694,141.208588 
	C397.162689,141.997284 407.545868,138.128510 417.377594,132.111069 
	C427.913940,125.662354 435.751160,116.647980 440.686615,105.523903 
	C445.470734,94.740883 446.933746,83.150780 446.016571,71.310402 
	C445.216797,60.985134 441.609314,51.567631 435.785004,43.250057 
	C428.516022,32.869324 418.885406,24.859966 406.640717,21.081888 
	C397.841766,18.366980 388.695862,15.872856 379.586578,15.353801 
	C372.323944,14.939969 364.642181,16.896137 357.567078,19.131449 
	C338.131195,25.272043 323.782104,37.430435 315.468994,57.140911 
z"/>
<path fill="#FFCC5E" opacity="1.000000" stroke="none" 
	d="
M351.425842,571.705566 
	C344.742126,571.024475 338.499176,570.344849 332.238403,570.068665 
	C321.299835,569.586304 310.352509,569.213440 299.404999,569.041260 
	C272.797211,568.622681 246.175247,568.715515 219.583069,567.856689 
	C206.107269,567.421448 192.655396,565.605103 179.244049,563.987488 
	C164.886917,562.255737 150.472092,560.629272 136.294876,557.866760 
	C115.320267,553.779724 94.763245,548.147766 75.171204,539.188110 
	C56.483936,530.642212 39.390388,519.966248 25.391302,504.835052 
	C14.706601,493.286224 8.200347,479.745331 6.925133,463.790131 
	C5.299689,443.452942 12.871334,426.576355 25.847891,411.639404 
	C40.888176,394.327026 60.220238,384.204559 82.302437,379.463104 
	C99.415054,375.788666 116.847755,376.077728 134.215836,377.905945 
	C146.166702,379.163910 158.111679,380.500641 170.033539,382.006042 
	C187.488419,384.210052 204.900955,386.758698 222.369888,388.838348 
	C231.380005,389.910950 240.462402,390.539520 249.530975,390.919769 
	C262.965118,391.483002 276.414337,391.815643 289.860046,391.944061 
	C313.558502,392.170502 336.996155,389.254028 359.862396,383.363129 
	C391.021484,375.335785 421.934692,366.338440 452.876678,357.488983 
	C479.728973,349.809174 506.683655,342.525909 534.286926,338.165741 
	C553.620911,335.111755 573.210693,333.792206 592.756165,335.107605 
	C620.980164,337.007019 648.790649,341.523468 674.113037,355.113220 
	C696.406555,367.077423 714.345276,383.346497 722.227905,408.474945 
	C728.999695,430.062347 726.864746,451.004150 718.192505,471.699036 
	C710.639160,489.723846 699.469482,505.130127 685.186096,518.186035 
	C670.966370,531.183838 654.504822,540.931946 637.011169,548.946167 
	C615.970154,558.585510 593.728271,564.427734 571.143677,568.705505 
	C556.946960,571.394531 542.449463,572.740601 528.023682,573.907349 
	C513.176819,575.108215 498.258881,575.685913 483.361725,575.945129 
	C464.311737,576.276672 445.247101,576.265625 426.197113,575.929077 
	C412.132324,575.680603 398.076843,574.749329 384.024811,573.983093 
	C373.296570,573.398071 362.580200,572.594788 351.425842,571.705566 
z"/>
<path fill="#FF818F" opacity="1.000000" stroke="none" 
	d="
M330.205933,186.875519 
	C342.016998,189.404694 353.349243,192.184555 364.807709,194.271744 
	C377.086487,196.508377 389.429810,198.729156 401.844635,199.787704 
	C414.888824,200.899918 428.085938,201.367569 441.152161,200.753616 
	C454.600464,200.121719 467.971802,197.847900 481.376190,196.286789 
	C490.860352,195.182266 500.335449,193.993713 509.829529,192.982605 
	C517.041565,192.214539 524.265137,191.403412 531.504639,191.074799 
	C547.581360,190.345078 573.642944,197.392029 581.167358,218.383270 
	C586.331482,232.789764 584.882263,246.091125 575.240112,258.412994 
	C566.287415,269.853882 554.512878,277.058350 541.322632,282.382965 
	C522.240173,290.086182 503.369751,298.377075 484.022308,305.343628 
	C465.653564,311.957733 446.979034,317.927979 428.089233,322.834991 
	C406.983429,328.317566 385.560608,332.688904 364.125641,336.752014 
	C352.186066,339.015198 339.973022,340.257782 327.826660,340.914246 
	C306.795410,342.050964 285.714478,343.006042 264.665436,342.816284 
	C250.707199,342.690460 236.774109,340.368347 222.818924,339.154175 
	C207.081863,337.785004 192.098953,333.714294 177.773483,327.093323 
	C153.254944,315.761322 137.326477,297.091492 132.205444,270.578430 
	C127.005020,243.654251 135.208038,220.432312 156.108276,202.519974 
	C171.545853,189.289368 189.920685,181.885666 209.851425,177.892456 
	C227.265900,174.403381 244.893906,173.890625 262.332611,175.286331 
	C279.629547,176.670700 296.733307,180.537186 313.899445,183.446838 
	C319.231323,184.350586 324.490295,185.684387 330.205933,186.875519 
z"/>
<path fill="#317A9A" opacity="1.000000" stroke="none" 
	d="
M315.832764,56.969872 
	C323.782104,37.430435 338.131195,25.272043 357.567078,19.131449 
	C364.642181,16.896137 372.323944,14.939969 379.586578,15.353801 
	C388.695862,15.872856 397.841766,18.366980 406.640717,21.081888 
	C418.885406,24.859966 428.516022,32.869324 435.785004,43.250057 
	C441.609314,51.567631 445.216797,60.985134 446.016571,71.310402 
	C446.933746,83.150780 445.470734,94.740883 440.686615,105.523903 
	C435.751160,116.647980 427.913940,125.662354 417.377594,132.111069 
	C407.545868,138.128510 397.162689,141.997284 385.361694,141.208588 
	C376.791626,140.635803 367.812347,141.854309 359.703247,139.693405 
	C346.348602,136.134735 335.053833,128.125748 326.058075,117.478767 
	C319.037720,109.169777 313.687286,99.587669 312.589752,88.743866 
	C311.757782,80.523849 313.127014,72.063812 313.736633,63.726658 
	C313.899353,61.501083 314.869537,59.334549 315.832764,56.969872 
z"/>
</svg>
